<?xml version="1.0" encoding="UTF-8" standalone="no"?>
<svg width="30px" height="21px" viewBox="0 0 30 21" version="1.1" xmlns="http://www.w3.org/2000/svg" xmlns:xlink="http://www.w3.org/1999/xlink">
    <!-- Generator: Sketch Beta 39.1 (31721) - http://www.bohemiancoding.com/sketch -->
    <title>0009 bed</title>
    <desc>Created with Sketch Beta.</desc>
    <defs></defs>
    <g id="Page-1" stroke="none" stroke-width="1" fill="none" fill-rule="evenodd">
        <g id="iPad-Pro-Landscape" transform="translate(-154.000000, -492.000000)">
            <g id="bigthing-left" transform="translate(-1.000000, 64.000000)">
                <g id="Group-2" transform="translate(0.999219, 397.000000)">
                    <g id="info-item">
                        <g id="0009-bed" transform="translate(154.352724, 31.000000)">
                            <g id="Group">
                                <path d="M19.8780763,20.7980769 L18.7421863,20.7980769 C18.4286806,20.7980769 18.1742412,20.5762308 18.1742412,20.3028846 C18.1742412,20.0295385 18.4286806,19.8076923 18.7421863,19.8076923 L19.8780763,19.8076923 C20.191582,19.8076923 20.4460214,20.0295385 20.4460214,20.3028846 C20.4460214,20.5762308 20.191582,20.7980769 19.8780763,20.7980769 L19.8780763,20.7980769 Z" id="Shape" fill="#FFFFFF"></path>
                                <path d="M2.83972519,20.7980769 L1.70383511,20.7980769 C1.39032945,20.7980769 1.13589008,20.5762308 1.13589008,20.3028846 C1.13589008,20.0295385 1.39032945,19.8076923 1.70383511,19.8076923 L2.83972519,19.8076923 C3.15323085,19.8076923 3.40767023,20.0295385 3.40767023,20.3028846 C3.40767023,20.5762308 3.15323085,20.7980769 2.83972519,20.7980769 L2.83972519,20.7980769 Z" id="Shape" fill="#FFFFFF"></path>
                                <path d="M28.2560323,12.4040705 L24.6698878,3.0250932 C24.3685184,2.23812002 23.5068139,1.59111187 22.567874,1.38776646 C22.5345568,1.2623261 22.4982107,1.14216745 22.455807,1.03125176 C22.1120339,0.133362904 21.5229248,0 21.201868,0 L15.1441914,0 C14.9518602,0 14.6626061,0.0488557173 14.3869818,0.281250481 C14.1113575,0.0488557173 13.8221035,0 13.6297723,0 L7.5720957,0 C7.25103884,0 6.6619298,0.134683329 6.31815665,1.03125176 C6.27575292,1.14216745 6.23789244,1.26100568 6.20608964,1.38776646 C5.26563535,1.59111187 4.40393086,2.2367996 4.10407587,3.0250932 L0.517931346,12.4040705 C0.227162871,13.1633148 0,14.3860281 0,15.1862055 L0,17.8270551 C0,18.9190464 1.01920408,19.8076923 2.27162871,19.8076923 L26.502335,19.8076923 C27.7547596,19.8076923 28.7739637,18.9190464 28.7739637,17.8270551 L28.7739637,15.1862055 C28.7739637,14.3860281 28.5468008,13.1633148 28.2560323,12.4040705 L28.2560323,12.4040705 Z M15.3819552,1.32174522 L20.9641042,1.32174522 C21.0701135,1.52905191 21.201868,2.00044356 21.201868,2.64217001 C21.201868,3.28389646 21.0701135,3.75528811 20.9641042,3.9625948 L15.3819552,3.9625948 C15.2759459,3.75528811 15.1441914,3.28389646 15.1441914,2.64217001 C15.1441914,2.00044356 15.2759459,1.52905191 15.3819552,1.32174522 L15.3819552,1.32174522 Z M7.80985951,1.32174522 L13.3920085,1.32174522 C13.4980178,1.52905191 13.6297723,2.00044356 13.6297723,2.64217001 C13.6297723,3.28389646 13.4980178,3.75528811 13.3920085,3.9625948 L7.80985951,3.9625948 C7.70385017,3.75528811 7.5720957,3.28389646 7.5720957,2.64217001 C7.5720957,2.00044356 7.70385017,1.52905191 7.80985951,1.32174522 L7.80985951,1.32174522 Z M5.53974521,3.44366786 C5.62152385,3.22975904 5.81991276,3.0250932 6.06221982,2.87720562 C6.08342169,3.38953044 6.171258,3.87016507 6.31815665,4.25176783 C6.6619298,5.14965669 7.25103884,5.28301959 7.5720957,5.28301959 L13.6297723,5.28301959 C13.8221035,5.28301959 14.1113575,5.23416388 14.3869818,5.00176911 C14.6626061,5.23416388 14.9518602,5.28301959 15.1441914,5.28301959 L21.201868,5.28301959 C21.5229248,5.28301959 22.1120339,5.14833626 22.455807,4.25176783 C22.6011912,3.87016507 22.690542,3.38821002 22.7117438,2.87720562 C22.9540509,3.02641362 23.1524398,3.22975904 23.2342184,3.44366786 L24.4427249,6.60344439 L4.33275316,6.60344439 L5.54125963,3.44366786 L5.53974521,3.44366786 Z M3.82693717,7.92386918 L24.9470265,7.92386918 L26.8188486,12.8213247 C26.86731,12.9467651 26.9127425,13.0906914 26.9566607,13.2451811 C26.809762,13.2187726 26.6583201,13.2055683 26.502335,13.2055683 L2.27162871,13.2055683 C2.11564354,13.2055683 1.96420162,13.2187726 1.81730297,13.2451811 C1.86122112,13.0906914 1.9066537,12.9467651 1.95511511,12.8213247 L3.82845159,7.92386918 L3.82693717,7.92386918 Z M27.2595445,17.8270551 C27.2595445,18.1914924 26.9203146,18.4872675 26.502335,18.4872675 L2.27162871,18.4872675 C1.85364903,18.4872675 1.51441914,18.1914924 1.51441914,17.8270551 L1.51441914,15.1862055 C1.51441914,14.8217683 1.85364903,14.5259931 2.27162871,14.5259931 L26.502335,14.5259931 C26.9203146,14.5259931 27.2595445,14.8217683 27.2595445,15.1862055 L27.2595445,17.8270551 L27.2595445,17.8270551 Z" id="Shape" fill="#FFFFFF"></path>
                            </g>
                        </g>
                    </g>
                </g>
            </g>
        </g>
    </g>
</svg>
