<?xml version="1.0" encoding="utf-8"?>
<!-- Generator: Adobe Illustrator 16.0.0, SVG Export Plug-In . SVG Version: 6.00 Build 0)  -->
<!DOCTYPE svg PUBLIC "-//W3C//DTD SVG 1.1//EN" "http://www.w3.org/Graphics/SVG/1.1/DTD/svg11.dtd">
<svg version="1.1" id="Layer_1" xmlns="http://www.w3.org/2000/svg" xmlns:xlink="http://www.w3.org/1999/xlink" x="0px" y="0px"
	 width="215px" height="56px" viewBox="0 0 215 56" enable-background="new 0 0 215 56" xml:space="preserve">
<g>
	<path fill="#284D78" d="M1,51.006V6h19.904c2.07,0,3.982,0.434,5.736,1.299c1.753,0.867,3.265,2.008,4.532,3.423
		c1.268,1.417,2.26,3.022,2.979,4.818c0.718,1.796,1.078,3.603,1.078,5.419c0,2.916-0.729,5.568-2.187,7.956
		c-1.458,2.388-3.434,4.11-5.927,5.166l10.586,16.925h-9.889l-9.445-15.087H9.748v15.087H1z M9.748,28.25h10.966
		c0.802,0,1.553-0.19,2.25-0.571c0.697-0.38,1.299-0.897,1.806-1.553c0.507-0.655,0.909-1.427,1.205-2.314
		c0.295-0.887,0.444-1.838,0.444-2.853c0-1.056-0.169-2.028-0.507-2.916c-0.338-0.887-0.792-1.658-1.363-2.313
		c-0.57-0.654-1.226-1.162-1.965-1.521c-0.74-0.358-1.49-0.539-2.25-0.539H9.748V28.25z"/>
	<path fill="#284D78" d="M57.416,51.64c-2.663,0-5.071-0.455-7.227-1.362c-2.155-0.909-3.993-2.146-5.515-3.709
		c-1.521-1.562-2.694-3.38-3.518-5.451c-0.824-2.07-1.236-4.247-1.236-6.529c0-2.366,0.401-4.596,1.204-6.687
		c0.802-2.092,1.965-3.93,3.486-5.515c1.521-1.584,3.37-2.841,5.547-3.771c2.176-0.929,4.616-1.395,7.321-1.395
		c2.704,0,5.124,0.465,7.258,1.395c2.133,0.93,3.951,2.177,5.452,3.74c1.499,1.564,2.64,3.381,3.423,5.452
		c0.781,2.071,1.172,4.226,1.172,6.466c0,0.549-0.011,1.077-0.031,1.585c-0.022,0.507-0.074,0.93-0.159,1.268H48.921
		c0.127,1.31,0.444,2.472,0.951,3.486c0.507,1.014,1.162,1.881,1.965,2.599c0.802,0.719,1.711,1.268,2.726,1.648
		c1.014,0.38,2.07,0.57,3.169,0.57c1.689,0,3.285-0.412,4.786-1.236c1.499-0.824,2.524-1.912,3.074-3.265l7.29,2.028
		c-1.226,2.536-3.18,4.618-5.863,6.244C64.335,50.826,61.134,51.64,57.416,51.64z M66.037,31.609
		c-0.212-2.493-1.131-4.49-2.758-5.991c-1.627-1.5-3.603-2.25-5.927-2.25c-1.141,0-2.209,0.201-3.201,0.603
		c-0.993,0.402-1.87,0.961-2.63,1.68c-0.761,0.719-1.385,1.585-1.87,2.599c-0.486,1.014-0.771,2.134-0.856,3.36H66.037z"/>
	<path fill="#284D78" d="M95.448,51.64c-2.662,0-5.071-0.455-7.226-1.362c-2.155-0.909-3.993-2.146-5.515-3.709
		c-1.521-1.562-2.694-3.38-3.518-5.451c-0.824-2.07-1.236-4.247-1.236-6.529c0-2.366,0.401-4.596,1.205-6.687
		c0.802-2.092,1.965-3.93,3.486-5.515c1.521-1.584,3.37-2.841,5.546-3.771c2.176-0.929,4.617-1.395,7.321-1.395
		c2.704,0,5.124,0.465,7.258,1.395c2.133,0.93,3.951,2.177,5.451,3.74c1.499,1.564,2.641,3.381,3.423,5.452
		c0.781,2.071,1.173,4.226,1.173,6.466c0,0.549-0.011,1.077-0.032,1.585c-0.021,0.507-0.074,0.93-0.158,1.268H86.954
		c0.126,1.31,0.443,2.472,0.951,3.486c0.507,1.014,1.162,1.881,1.965,2.599c0.802,0.719,1.711,1.268,2.726,1.648
		c1.014,0.38,2.07,0.57,3.169,0.57c1.689,0,3.285-0.412,4.786-1.236c1.5-0.824,2.524-1.912,3.074-3.265l7.29,2.028
		c-1.227,2.536-3.181,4.618-5.864,6.244C102.367,50.826,99.166,51.64,95.448,51.64z M104.069,31.609
		c-0.212-2.493-1.131-4.49-2.758-5.991c-1.627-1.5-3.603-2.25-5.926-2.25c-1.141,0-2.209,0.201-3.201,0.603
		c-0.994,0.402-1.87,0.961-2.631,1.68c-0.76,0.719-1.384,1.585-1.87,2.599c-0.486,1.014-0.771,2.134-0.855,3.36H104.069z"/>
	<path fill="#284D78" d="M169.611,51.006h-8.493V32.37c0-2.663-0.466-4.606-1.396-5.832c-0.93-1.226-2.197-1.839-3.803-1.839
		c-1.648,0-3.212,0.645-4.69,1.934c-1.479,1.29-2.536,2.97-3.17,5.039v19.334h-8.494V32.37c0-2.663-0.454-4.606-1.362-5.832
		c-0.909-1.226-2.166-1.839-3.771-1.839c-1.648,0-3.223,0.634-4.723,1.902c-1.501,1.268-2.567,2.938-3.201,5.008v19.396h-8.494
		V17.79h7.67v6.149c1.226-2.155,2.905-3.813,5.039-4.976c2.134-1.162,4.574-1.743,7.322-1.743c2.788,0,4.933,0.676,6.434,2.028
		c1.499,1.353,2.481,3.022,2.947,5.008c1.352-2.282,3.063-4.025,5.135-5.229c2.069-1.205,4.437-1.807,7.1-1.807
		c2.028,0,3.697,0.38,5.008,1.141c1.309,0.76,2.323,1.754,3.042,2.979c0.719,1.226,1.215,2.621,1.489,4.184
		c0.274,1.564,0.412,3.148,0.412,4.755V51.006z"/>
</g>
<g>
	<path fill="#284D78" d="M191.609,51.64c-2.705,0-5.135-0.466-7.289-1.395c-2.155-0.929-3.984-2.188-5.483-3.771
		c-1.501-1.585-2.653-3.412-3.455-5.483c-0.803-2.07-1.204-4.247-1.204-6.528c0-2.324,0.401-4.522,1.204-6.593
		c0.802-2.07,1.954-3.898,3.455-5.483c1.499-1.584,3.328-2.841,5.483-3.771c2.154-0.929,4.584-1.395,7.289-1.395
		c2.704,0,5.123,0.465,7.258,1.395c2.134,0.93,3.951,2.187,5.451,3.771c1.5,1.585,2.651,3.413,3.455,5.483
		c0.802,2.07,1.204,4.269,1.204,6.593c0,2.281-0.402,4.458-1.204,6.528c-0.804,2.071-1.944,3.898-3.423,5.483
		c-1.479,1.584-3.296,2.843-5.451,3.771S194.313,51.64,191.609,51.64z M182.925,34.462c0,1.479,0.223,2.82,0.666,4.024
		c0.443,1.205,1.056,2.25,1.839,3.138c0.781,0.888,1.7,1.575,2.757,2.061c1.056,0.486,2.197,0.729,3.423,0.729
		s2.366-0.242,3.423-0.729c1.056-0.485,1.975-1.173,2.758-2.061c0.781-0.888,1.394-1.943,1.838-3.169s0.666-2.577,0.666-4.057
		c0-1.437-0.222-2.768-0.666-3.994c-0.444-1.225-1.057-2.282-1.838-3.169c-0.783-0.888-1.702-1.574-2.758-2.061
		c-1.057-0.485-2.197-0.729-3.423-0.729s-2.367,0.253-3.423,0.761c-1.057,0.507-1.976,1.205-2.757,2.092
		c-0.783,0.887-1.396,1.943-1.839,3.169C183.147,31.694,182.925,33.025,182.925,34.462z"/>
</g>
<rect x="187.447" y="15.593" fill="#FFFFFF" width="8.518" height="11.359"/>
<rect x="190.985" y="14.809" fill="#3E9FD8" width="1.226" height="12.928"/>
<g>
	<path fill="#284D78" d="M210.365,20.071h-0.717v1.867h-0.438v-1.867h-0.721v-0.384h1.875V20.071z"/>
	<path fill="#284D78" d="M212.48,21.938v-1.49l-0.58,1.109h-0.236l-0.58-1.109v1.49h-0.438v-2.25h0.469l0.666,1.281l0.672-1.281
		h0.465v2.25H212.48z"/>
</g>
<g>
</g>
<g>
</g>
<g>
</g>
<g>
</g>
<g>
</g>
<g>
</g>
</svg>
